<?xml version="1.0" encoding="UTF-8"?>
<svg version="1.1" xmlns="http://www.w3.org/2000/svg" width="641" height="641">
<path d="M0 0 C0.63421875 0.51175781 1.2684375 1.02351563 1.921875 1.55078125 C26.30770119 21.56658106 42.89562732 55.9562732 46 87 C46.87238481 98.03833841 47.48145583 108.99164361 46 120 C44.24609375 120.7265625 44.24609375 120.7265625 42 121 C40.03515625 119.5234375 40.03515625 119.5234375 38.0625 117.375 C37.36125 116.62992188 36.66 115.88484375 35.9375 115.1171875 C35.298125 114.41851562 34.65875 113.71984375 34 113 C30.11622658 109.01664265 26.02288795 105.37841827 21.79296875 101.76953125 C21.20128906 101.18558594 20.60960937 100.60164062 20 100 C20 99.34 20 98.68 20 98 C19.45730469 97.79503906 18.91460938 97.59007812 18.35546875 97.37890625 C15.07450004 95.45820649 12.8086778 92.7508871 10.3125 89.9375 C9.23676213 88.75422099 8.15993264 87.5719335 7.08203125 86.390625 C6.2923999 85.52147461 6.2923999 85.52147461 5.48681641 84.63476562 C-6.4402349 71.52088458 -18.27003768 62.85519475 -36.3125 61.94140625 C-48.44969873 62.13426428 -59.82965198 65.93400096 -68.8125 74.25 C-76.72052319 82.95071286 -79.89328979 92.92031669 -83 104 C-84.258125 103.855625 -85.51625 103.71125 -86.8125 103.5625 C-87.63878906 103.47484375 -88.46507812 103.3871875 -89.31640625 103.296875 C-91.07703695 103.10210363 -92.83528411 102.88409331 -94.58984375 102.640625 C-108.93317365 100.87140369 -121.08048533 104.53823388 -132.640625 112.95703125 C-140.47149893 119.73773832 -145.42527064 129.81675016 -147 140 C-147.44115316 148.88461954 -147.01854707 157.33106124 -145 166 C-145.52207031 166.17015625 -146.04414063 166.3403125 -146.58203125 166.515625 C-148.15739012 167.03430708 -149.73007638 167.5611405 -151.30078125 168.09375 C-153.10346834 168.69899371 -154.91365566 169.28233136 -156.73046875 169.84375 C-167.32043708 173.30901467 -175.11821607 179.48965284 -181 189 C-184.90836736 197.0394914 -187.1947198 203.81703955 -187.1875 212.75 C-187.18886963 213.46647705 -187.19023926 214.1829541 -187.19165039 214.92114258 C-187.15722988 218.65513067 -186.95910134 222.09118718 -185.9375 225.6875 C-184.96418274 229.12655433 -185.17730528 230.62292447 -186 234 C-186.97839844 234.29132813 -187.95679688 234.58265625 -188.96484375 234.8828125 C-196.75430677 237.28301353 -203.63442234 239.72459017 -210 245 C-210.69609375 245.57363281 -211.3921875 246.14726562 -212.109375 246.73828125 C-220.87888205 254.70007055 -225.27673288 265.35469769 -226.25 276.98828125 C-226.77179915 290.60397775 -222.46196655 302.83172259 -213.24609375 312.91992188 C-206.32198684 320.85111071 -206.32198684 320.85111071 -198 327 C-198 327.66 -198 328.32 -198 329 C-197.34 329 -196.68 329 -196 329 C-196 329.66 -196 330.32 -196 331 C-195.34 331 -194.68 331 -194 331 C-189.23255814 335.30232558 -189.23255814 335.30232558 -188 339 C-187.34 339 -186.68 339 -186 339 C-183.875 340.875 -183.875 340.875 -182 343 C-182 343.66 -182 344.32 -182 345 C-181.40832031 345.25394531 -180.81664062 345.50789063 -180.20703125 345.76953125 C-177.7569027 347.13553212 -176.4640418 348.52936211 -174.6875 350.6875 C-170.08587186 356.11154679 -165.17753688 361.01793086 -159.8125 365.6875 C-159.14992188 366.265 -158.48734375 366.8425 -157.8046875 367.4375 C-156.35407863 368.69343842 -154.89684222 369.94172005 -153.4375 371.1875 C-152 373 -152 373 -152.1015625 374.78515625 C-153.3965275 377.97752648 -155.48995752 379.84810752 -157.9375 382.25 C-158.83339844 383.14203125 -159.72929687 384.0340625 -160.65234375 384.953125 C-163 387 -163 387 -165 387 C-165.3403125 387.86625 -165.3403125 387.86625 -165.6875 388.75 C-167.34761639 391.59591381 -169.39187957 392.99841921 -172 395 C-173.68195912 396.65123259 -175.34582773 398.32093191 -177 400 C-178.03371256 401.04009621 -179.06800372 402.0796176 -180.1027832 403.11865234 C-180.65718582 403.67628265 -181.21158844 404.23391296 -181.78279114 404.80844116 C-184.29594216 407.33510504 -186.81186425 409.8590025 -189.32788086 412.3828125 C-190.64649492 413.7064551 -191.96421003 415.03099387 -193.28100586 416.35644531 C-195.20184248 418.28953799 -197.12600311 420.21927028 -199.05078125 422.1484375 C-199.62814529 422.73096283 -200.20550934 423.31348816 -200.80036926 423.91366577 C-203.75774662 426.87143928 -206.77248024 429.70218846 -209.94262695 432.43164062 C-214.14074507 436.06337023 -218.00450169 439.9626297 -221.8671875 443.9453125 C-223.34444378 445.44981627 -224.82232762 446.95370408 -226.30078125 448.45703125 C-228.5929813 450.79243405 -230.88110304 453.13129616 -233.15869141 455.48095703 C-235.38317662 457.77251696 -237.62365955 460.04741236 -239.8671875 462.3203125 C-240.53418671 463.01625519 -241.20118591 463.71219788 -241.88839722 464.42922974 C-247.42639434 469.99775051 -254.03416049 474.80374775 -262.0546875 475.69921875 C-271.94059093 475.66889389 -280.02925989 474.15248022 -287.82421875 467.42578125 C-289 466 -289 466 -289 464 C-289.66 464 -290.32 464 -291 464 C-295.74034285 455.94141716 -297.91295721 447.044737 -296.5 437.6875 C-294.27777343 429.42522341 -287.77521523 423.4838455 -281.83300781 417.63769531 C-281.14284073 416.95044876 -280.45267365 416.26320221 -279.74159241 415.55513 C-278.25590979 414.0770069 -276.76792298 412.60119676 -275.27783966 411.12751007 C-272.91965402 408.79501871 -270.56791994 406.45618982 -268.2177124 404.11566162 C-263.23407789 399.15478655 -258.24260638 394.20184355 -253.25 389.25 C-247.44872156 383.49594175 -241.65071143 377.73866809 -235.86104584 371.97292328 C-233.54400352 369.66884474 -231.22102227 367.37086947 -228.89776611 365.07305908 C-227.48135448 363.66391064 -226.06522185 362.2544817 -224.64941406 360.84472656 C-224.00212845 360.20777359 -223.35484283 359.57082062 -222.6879425 358.91456604 C-222.0964592 358.32322372 -221.50497589 357.73188141 -220.89556885 357.12261963 C-220.12465597 356.35836859 -220.12465597 356.35836859 -219.3381691 355.57867813 C-217.19842945 353.05436323 -215.99029176 350.97729623 -216.0234375 347.640625 C-216.13945312 346.85171875 -216.25546875 346.0628125 -216.375 345.25 C-216.48585938 344.45078125 -216.59671875 343.6515625 -216.7109375 342.828125 C-216.85402344 341.92320312 -216.85402344 341.92320312 -217 341 C-220.71764853 339.81035247 -224.1190676 339.66601998 -228 340 C-230.86497647 341.59263732 -230.86497647 341.59263732 -233.375 343.9375 C-234.31601562 344.75992187 -235.25703125 345.58234375 -236.2265625 346.4296875 C-241.60067758 351.41020542 -246.74739591 356.48146034 -251.5 362.0625 C-254.68371882 365.78671062 -258.23145725 368.91805026 -261.9296875 372.12109375 C-264.60940542 374.55306416 -266.74061027 377.17576283 -269 380 C-270.6582564 381.67503471 -272.32684692 383.33984509 -274 385 C-275.16839633 386.19559258 -276.3343035 387.39362059 -277.49829102 388.59350586 C-281.06547911 392.26836722 -284.65161858 395.92412603 -288.24438477 399.57397461 C-289.78276461 401.14249018 -291.31571173 402.71635366 -292.84301758 404.2956543 C-312.20705773 424.29965516 -312.20705773 424.29965516 -324.13671875 425.7265625 C-335.14815226 425.41160401 -342.16424307 423.40794581 -350.27734375 415.859375 C-356.76561481 408.85616179 -358.51406056 400.59716537 -358.29296875 391.30078125 C-356.84659697 375.00499255 -340.26770946 363.15477657 -329.27421188 352.3518734 C-325.47657612 348.61605382 -321.69498212 344.86402316 -317.91015625 341.11523438 C-313.12275726 336.37583647 -308.33078967 331.64129294 -303.52392578 326.92163086 C-299.6079175 323.07583375 -295.70669246 319.21557962 -291.81492996 315.3452549 C-290.33632646 313.88022111 -288.85232849 312.42061055 -287.36283493 310.96665001 C-285.2881978 308.94024881 -283.23295497 306.89591814 -281.18115234 304.84643555 C-280.56617889 304.2546048 -279.95120544 303.66277405 -279.31759644 303.05300903 C-275.54774421 299.23716723 -274.06790977 296.58963567 -274 291 C-275.23006194 288.08669541 -276.30324482 286.52857289 -278.8125 284.625 C-282.08414725 283.69024364 -283.72917881 283.93069307 -287 285 C-292.68604289 289.33103764 -297.71603036 294.56773341 -302.75390625 299.62109375 C-303.45845444 300.32468521 -304.16300262 301.02827667 -304.88890076 301.75318909 C-306.36653367 303.23014648 -307.84292457 304.70834742 -309.31811523 306.18774414 C-311.55666481 308.43165085 -313.80050473 310.67016704 -316.04492188 312.90820312 C-317.48990404 314.35384618 -318.93457592 315.79979945 -320.37890625 317.24609375 C-321.03951553 317.9046788 -321.70012482 318.56326385 -322.38075256 319.24180603 C-326.17444944 323.0543547 -329.77057257 326.97995042 -333.28688049 331.04890442 C-337.86671682 336.26494358 -342.80937997 341.15526275 -347.6862793 346.09130859 C-349.01782729 347.44446155 -350.34307656 348.80384235 -351.66186523 350.16943359 C-361.0936793 359.93117916 -370.31296269 369.26296294 -384.625 370.25 C-393.3404645 370.08800252 -400.71764267 366.9992468 -407 361 C-413.98564097 353.22265305 -415.60434789 346.06846289 -415.30078125 335.6875 C-414.05026548 320.35650144 -398.23827845 309.1302126 -387.96064949 298.97718048 C-385.61607593 296.65955126 -383.27616226 294.33731159 -380.93760681 292.01361084 C-374.29591612 285.41439322 -367.65135284 278.81814788 -360.9909668 272.23779297 C-356.90009785 268.19541744 -352.81903633 264.14336478 -348.74423027 260.08480072 C-347.19491789 258.54537754 -345.64195863 257.00961553 -344.08528328 255.47763824 C-341.91482874 253.34090416 -339.75708262 251.19206726 -337.60180664 249.04003906 C-336.95923416 248.41341873 -336.31666168 247.7867984 -335.65461731 247.14118958 C-332.19732729 243.66003144 -330.03681555 240.9543456 -329 236 C-329.51910456 233.23317269 -330.61583079 231.52116535 -332 229 C-335.30381574 227.34809213 -338.45596244 227.23675866 -342 228 C-343.98986163 229.30626728 -343.98986163 229.30626728 -345.81825256 231.07919312 C-346.51280611 231.71737347 -347.20735966 232.35555382 -347.92296028 233.01307297 C-351.08977485 236.0424948 -354.20861564 239.10965731 -357.28295898 242.23291016 C-357.96217407 242.91840439 -358.64138916 243.60389862 -359.34118652 244.31016541 C-360.80173608 245.78446189 -362.26119927 247.25983528 -363.71966362 248.73619461 C-366.03379038 251.07719693 -368.35247025 253.41359702 -370.67262268 255.74862671 C-377.26434425 262.38286993 -383.85331507 269.01976624 -390.42602539 275.67285156 C-394.45954323 279.7550268 -398.50287614 283.82725528 -402.55269051 287.89326096 C-404.08685839 289.43728756 -405.61737344 290.98495308 -407.14404106 292.53639603 C-409.28266362 294.7089648 -411.43360867 296.86860771 -413.58764648 299.02587891 C-414.20662308 299.66080765 -414.82559967 300.29573639 -415.46333313 300.9499054 C-422.57284303 308.0112414 -430.71183594 312.48457672 -440.8125 313.3125 C-448.60628144 313.07083236 -456.38984493 310.52765279 -462 305 C-468.52277158 297.09267785 -471.866939 288.56860504 -471.44189453 278.26342773 C-469.96361002 267.34617414 -462.39492557 259.5424218 -454.75 252.25 C-453.38488281 250.90035156 -453.38488281 250.90035156 -451.9921875 249.5234375 C-445.31012538 243 -445.31012538 243 -443 243 C-442.6809948 242.17444611 -442.6809948 242.17444611 -442.35554504 241.33221436 C-440.53143545 238.19383501 -438.00253939 236.05891074 -435.3112793 233.68457031 C-428.31507596 227.36748361 -421.65371039 220.75738367 -415.01929665 214.06389618 C-412.96647277 211.99335868 -410.90984826 209.92666209 -408.85221863 207.86090088 C-403.01388071 201.99835912 -397.18159516 196.1298212 -391.35327148 190.25732422 C-387.763388 186.6407541 -384.16872345 183.0289945 -380.57102013 179.42020416 C-379.2059205 178.04888933 -377.84272224 176.67567907 -376.48145485 175.30056 C-374.59343157 173.39344846 -372.69944583 171.49245882 -370.80395508 169.59277344 C-370.24247269 169.02252945 -369.6809903 168.45228546 -369.10249329 167.86476135 C-365.22790199 164 -365.22790199 164 -363 164 C-363 163.34 -363 162.68 -363 162 C-362.34 162 -361.68 162 -361 162 C-360.67 161.01 -360.34 160.02 -360 159 C-359.34 159 -358.68 159 -358 159 C-357.67 158.01 -357.34 157.02 -357 156 C-355.61074829 154.6394043 -355.61074829 154.6394043 -353.75244141 153.13671875 C-348.08363172 148.32215202 -342.97382475 142.98834173 -337.78138351 137.67315674 C-334.64078143 134.4631838 -331.48293042 131.27022235 -328.328125 128.07421875 C-324.33116302 124.02318933 -320.33960826 119.9672247 -316.36621094 115.89306641 C-313.13665532 112.58251937 -309.89037924 109.28922816 -306.63212967 106.00692749 C-305.39703561 104.75639364 -304.16826034 103.49958605 -302.94602585 102.23648071 C-301.24203804 100.47711205 -299.51756172 98.74061176 -297.78662109 97.0078125 C-297.28776901 96.48222244 -296.78891693 95.95663239 -296.27494812 95.41511536 C-294.83163452 93.99658203 -294.83163452 93.99658203 -292 92 C-287.90364275 92.14417095 -285.54666099 92.93761507 -282.5 95.625 C-266.1435221 108.60384958 -245.19673778 111.86301919 -224.86816406 109.78173828 C-212.34523659 108.02926761 -201.01670648 103.45627009 -190.14453125 97.13671875 C-188 96 -188 96 -186 96 C-186 95.34 -186 94.68 -186 94 C-184.68 93.67 -183.36 93.34 -182 93 C-182 92.34 -182 91.68 -182 91 C-181.05125 90.2575 -180.1025 89.515 -179.125 88.75 C-175.9382487 86.16123766 -174.5860994 84.1864243 -174 80 C-175.44945551 74.30571049 -178.16111746 71.59879889 -182.63671875 67.94140625 C-185.28951549 65.76216661 -187.79310683 63.4569705 -190.3125 61.125 C-193.91391171 57.83567762 -197.57307275 54.67982364 -201.375 51.625 C-206.24893871 47.69508098 -210.85058958 43.53443122 -215.40966797 39.24853516 C-218.83995842 36.0304053 -222.36092287 32.9808883 -226 30 C-225.79028211 26.27243364 -225.0409559 25.04243401 -222.40234375 22.30859375 C-221.25921563 21.33747501 -220.10329337 20.38128987 -218.9375 19.4375 C-218.31262695 18.91937744 -217.68775391 18.40125488 -217.04394531 17.86743164 C-215.04424614 16.22538814 -213.02633971 14.60902352 -211 13 C-210.3601416 12.48953125 -209.7202832 11.9790625 -209.06103516 11.453125 C-148.73107904 -36.25749507 -62.67576835 -52.86858877 0 0 Z " fill="#010101" transform="translate(559,139)"/>
<path d="M0 0 C2.58484174 2.15449296 5.20601419 4.25778651 7.83764648 6.35473633 C13.54812111 11.0180179 18.90055454 16.02912479 24.27514648 21.06958008 C31.07673199 27.48734935 31.07673199 27.48734935 38.52514648 33.10473633 C38.52514648 33.76473633 38.52514648 34.42473633 38.52514648 35.10473633 C39.06655273 35.32774414 39.60795898 35.55075195 40.16577148 35.78051758 C43.27496227 37.52557664 45.70346249 39.85805155 48.27514648 42.29223633 C49.35140697 43.29414292 50.42822981 44.29544577 51.50561523 45.29614258 C52.02559082 45.78099121 52.54556641 46.26583984 53.08129883 46.76538086 C57.06860295 50.4641212 61.15251943 54.02254384 65.42358398 57.38989258 C66.42647461 58.18266602 67.42936523 58.97543945 68.46264648 59.79223633 C69.39979492 60.51797852 70.33694336 61.2437207 71.30249023 61.99145508 C73.54463975 64.12327035 74.20480346 65.08533296 74.52514648 68.10473633 C70.67780439 71.52953796 66.75703434 73.49163467 61.96264648 75.22973633 C61.25809326 75.48835449 60.55354004 75.74697266 59.82763672 76.01342773 C53.81223842 78.14469092 47.89204859 79.51224765 41.52514648 80.10473633 C40.80713867 80.17563477 40.08913086 80.2465332 39.34936523 80.31958008 C22.46205166 81.11465134 7.39615856 74.55049835 -5.47485352 64.10473633 C-7.06584631 62.61286289 -8.64961126 61.11323103 -10.22485352 59.60473633 C-13.0470884 57.07324678 -14.28765835 56.15399821 -18.03735352 55.16723633 C-26.34527532 57.43303318 -32.88344982 66.38699951 -38.78038025 72.33509827 C-40.29297683 73.8606761 -41.80886553 75.38291719 -43.32556152 76.90441895 C-46.54484463 80.13502586 -49.76015463 83.36956856 -52.97485352 86.60473633 C-56.70561001 90.35924759 -60.43806103 94.11204246 -64.17478943 97.86061096 C-65.65455908 99.34677322 -67.13123917 100.83595628 -68.60778809 102.32531738 C-69.52233765 103.24317017 -70.43688721 104.16102295 -71.37915039 105.10668945 C-72.17220581 105.90498169 -72.96526123 106.70327393 -73.78234863 107.52575684 C-75.86676535 109.52228728 -77.97137404 111.40979392 -80.15830994 113.28819275 C-85.2165805 117.6827202 -89.91249986 122.41803185 -94.63525391 127.16748047 C-95.62976517 128.16391527 -96.62450759 129.16011942 -97.61946106 130.15611267 C-99.7466603 132.28645172 -101.87230124 134.41832878 -103.99672127 136.55143929 C-107.36119124 139.92953033 -110.7295605 143.30371557 -114.09849548 146.67735291 C-121.24776126 153.83767653 -128.3927784 161.00223282 -135.53735352 168.16723633 C-143.25618484 175.90813024 -150.97576028 183.64827345 -158.70023531 191.38353628 C-162.04404242 194.73230288 -165.38540156 198.08348672 -168.72485936 201.43659031 C-170.80715193 203.52637935 -172.89154765 205.61406112 -174.97649956 207.70119667 C-176.39262279 209.12006264 -177.80622287 210.54144551 -179.21972656 211.96292114 C-181.61986327 214.36325544 -184.03687462 216.742896 -186.47485352 219.10473633 C-187.14625303 219.75848173 -187.81765255 220.41222713 -188.50939751 221.085783 C-190.35179138 222.78807068 -190.35179138 222.78807068 -193.47485352 225.10473633 C-201.64250972 224.02188566 -207.17969931 214.11859718 -211.84985352 208.04223633 C-225.97007342 189.35633018 -238.76613608 169.35121519 -246.47485352 147.10473633 C-246.72960449 146.38785645 -246.98435547 145.67097656 -247.24682617 144.93237305 C-256.5792174 118.43153214 -260.39889981 85.53110483 -252.47485352 58.10473633 C-252.24378906 57.29327148 -252.01272461 56.48180664 -251.7746582 55.64575195 C-241.53786317 20.69900765 -220.61771951 -9.965311 -188.44750977 -28.03393555 C-174.75693409 -35.40477331 -160.67085199 -40.65121787 -145.47485352 -43.89526367 C-144.42555664 -44.12342773 -143.37625977 -44.3515918 -142.29516602 -44.58666992 C-91.20564309 -53.69614845 -38.7163861 -32.28610886 0 0 Z " fill="#010001" transform="translate(286.474853515625,151.895263671875)"/>
<path d="M0 0 C1.15628906 -0.04898437 2.31257813 -0.09796875 3.50390625 -0.1484375 C15.35874026 1.42906772 22.61804226 9.86481183 30.58203125 18.0324707 C32.5800938 20.08053408 34.59679043 22.10875363 36.6171875 24.13476562 C37.89434106 25.42598449 39.17042355 26.71826386 40.4453125 28.01171875 C41.04828156 28.62005051 41.65125061 29.22838226 42.27249146 29.85514832 C46.4375 34.14159516 46.4375 34.14159516 46.4375 36.375 C47.015 36.6225 47.5925 36.87 48.1875 37.125 C50.76689979 38.55799988 52.49871592 40.15924676 54.4375 42.375 C54.4375 43.035 54.4375 43.695 54.4375 44.375 C55.015 44.601875 55.5925 44.82875 56.1875 45.0625 C59.00663681 46.70699647 60.45004869 48.8105467 62.4375 51.375 C63.9225 52.365 63.9225 52.365 65.4375 53.375 C65.4375 54.035 65.4375 54.695 65.4375 55.375 C66.0975 55.375 66.7575 55.375 67.4375 55.375 C68.91796875 56.87890625 68.91796875 56.87890625 70.625 58.9375 C74.68939979 63.71316976 78.82580687 68.43297178 83.875 72.1875 C84.390625 72.579375 84.90625 72.97125 85.4375 73.375 C85.4375 74.035 85.4375 74.695 85.4375 75.375 C86.02789063 75.62636719 86.61828125 75.87773437 87.2265625 76.13671875 C89.71400807 77.52986406 91.01820723 78.98464761 92.8125 81.1875 C94.94278466 83.71211395 96.88140993 85.74492494 99.4375 87.875 C103.22657106 91.03255922 106.27571497 94.60547526 109.4375 98.375 C110.200625 99.24125 110.96375 100.1075 111.75 101 C116.16710963 107.21667282 116.04899692 114.00791803 115.4375 121.375 C114.03710227 128.32991644 110.04992441 133.68134249 104.41015625 137.88671875 C96.98934482 142.70955523 90.24226817 143.12456659 81.4375 142.375 C75.67710702 140.72242824 70.45849987 136.7729686 66.4375 132.375 C66.4375 131.715 66.4375 131.055 66.4375 130.375 C65.7775 130.375 65.1175 130.375 64.4375 130.375 C61.8125 128 61.8125 128 59.4375 125.375 C59.4375 124.715 59.4375 124.055 59.4375 123.375 C58.7775 123.375 58.1175 123.375 57.4375 123.375 C57.4375 122.715 57.4375 122.055 57.4375 121.375 C55.9525 120.88 55.9525 120.88 54.4375 120.375 C54.4375 119.715 54.4375 119.055 54.4375 118.375 C53.62877441 118.05305664 53.62877441 118.05305664 52.80371094 117.72460938 C49.58680168 115.88978949 47.16610745 113.38914382 44.578125 110.78125 C44.02888367 110.23392212 43.47964233 109.68659424 42.91375732 109.12268066 C41.75824141 107.9685222 40.60523315 106.81184833 39.45458984 105.65283203 C37.686765 103.87426054 35.9084787 102.10665237 34.12890625 100.33984375 C33.00717029 99.21678692 31.88605449 98.09311024 30.765625 96.96875 C30.23132874 96.4385022 29.69703247 95.90825439 29.14654541 95.36193848 C25.4375 91.60493854 25.4375 91.60493854 25.4375 89.375 C24.87108292 89.13259079 24.30466583 88.89018158 23.72108459 88.64042664 C20.99209515 87.12818315 19.11804944 85.32444066 16.90014648 83.12817383 C15.56372353 81.81089043 15.56372353 81.81089043 14.20030212 80.46699524 C13.23599493 79.5057461 12.27210225 78.54408097 11.30859375 77.58203125 C10.31273221 76.59260129 9.31672262 75.60332033 8.3205719 74.61418152 C6.2349588 72.54053156 4.15350939 70.4628009 2.07446289 68.38256836 C-0.58062322 65.7272793 -3.249183 63.08600056 -5.92154026 60.44810963 C-7.98313756 58.40883328 -10.03549566 56.36044573 -12.08543205 54.30945396 C-13.06494589 53.33228907 -14.04767891 52.35833946 -15.03375435 51.3877964 C-22.51108518 44.01728302 -26.78437009 38.59655164 -27.5625 27.9296875 C-27.5625 19.57456867 -24.74267117 13.98492403 -19.25 7.75 C-13.43763433 2.61349081 -7.78008083 0.22204402 0 0 Z " fill="#030203" transform="translate(456.5625,259.625)"/>
<path d="M0 0 C0 0.66 0 1.32 0 2 C0.66 2 1.32 2 2 2 C3.625 3.375 3.625 3.375 5 5 C5 5.66 5 6.32 5 7 C6.32 7.66 7.64 8.32 9 9 C9 9.66 9 10.32 9 11 C9.66 11 10.32 11 11 11 C15.76744186 15.30232558 15.76744186 15.30232558 17 19 C17.66 19 18.32 19 19 19 C20.3046875 20.328125 20.3046875 20.328125 21.875 22.25 C26.47673986 27.67347912 31.52789186 32.61501311 36.58935547 37.60351562 C37.94878351 38.94929762 39.29498777 40.30839741 40.640625 41.66796875 C42.57977022 43.58464043 44.53491229 45.37848835 46.625 47.125 C51.10472973 50.875 51.10472973 50.875 53 53 C53 53.66 53 54.32 53 55 C53.928125 55.37125 53.928125 55.37125 54.875 55.75 C57.40358627 57.23740369 57.71839004 58.43678009 59 61 C59.598125 61.28875 60.19625 61.5775 60.8125 61.875 C63.45052063 63.23169632 64.81975884 65.10504319 66.62890625 67.41015625 C68.06808241 69.07894456 69.58785659 70.38245922 71.3125 71.75 C72.199375 72.4925 73.08625 73.235 74 74 C74 74.66 74 75.32 74 76 C74.66 76 75.32 76 76 76 C81.4708737 82.43529054 83.56552216 90.62385832 83.31640625 98.9609375 C82.07569321 106.95664378 77.34866693 113.4884998 71 118.25 C65.88256002 121.23517332 62.09003375 122.29292111 56.125 122.3125 C54.95195312 122.32925781 53.77890625 122.34601563 52.5703125 122.36328125 C44.09075813 121.50048195 39.48054494 117.16062306 33.5625 111.4375 C32.83095703 110.75236328 32.09941406 110.06722656 31.34570312 109.36132812 C27.4116585 105.6182922 27.4116585 105.6182922 26 104 C26 103.34 26 102.68 26 102 C25.43482162 101.760466 24.86964325 101.52093201 24.28733826 101.2741394 C21.51327477 99.72887447 19.63850291 97.87070538 17.40258789 95.61376953 C16.04581688 94.25193039 16.04581688 94.25193039 14.66163635 92.86257935 C13.6819476 91.86935205 12.70228829 90.87609572 11.72265625 89.8828125 C10.70953225 88.86341274 9.69588781 87.84452999 8.68174744 86.82614136 C6.01453246 84.14563776 3.35293937 81.45962697 0.69293213 78.77197266 C-3.55946315 74.47643736 -7.81854172 70.18755632 -12.08099556 65.90200424 C-13.5639988 64.40883463 -15.04350711 62.91226688 -16.52268982 61.41531372 C-17.43035599 60.50111664 -18.33802216 59.58691956 -19.27319336 58.64501953 C-20.46421913 57.44161423 -20.46421913 57.44161423 -21.67930603 56.21389771 C-24.01709711 53.98368968 -26.46210197 51.9968737 -29 50 C-33.83516484 45.49450549 -33.83516484 45.49450549 -35 42 C-35.5775 41.7525 -36.155 41.505 -36.75 41.25 C-41.00361123 38.88688265 -43.2238029 34.58935597 -45.3125 30.3125 C-47.16682585 21.37802091 -46.67761983 12.96161252 -42 5 C-31.00051792 -9.50817763 -14.2621576 -9.50810507 0 0 Z " fill="#030203" transform="translate(436,332)"/>
<path d="M0 0 C8.41195234 5.0964089 15.12483146 13.04054099 21.98320007 19.98027039 C23.72664322 21.72475244 25.47112741 23.46819463 27.21659851 25.21064758 C30.85683239 28.85106014 34.48657898 32.50151352 38.10868835 36.15995789 C42.74296369 40.83970628 47.39917003 45.4968754 52.06295776 50.147192 C55.66174849 53.73929039 59.25047196 57.34130918 62.83607483 60.94656754 C64.5493751 62.66754238 66.26535179 64.38585718 67.98408508 66.1014061 C70.38444425 68.50102068 72.77135445 70.9132623 75.15507507 73.32939148 C75.86054977 74.02991135 76.56602448 74.73043121 77.2928772 75.45217896 C84.49900277 82.81470208 87.77473182 89.99115828 87.67070007 100.39433289 C87.01867992 108.99544981 82.79698212 114.26805084 76.85820007 120.20683289 C69.82009793 125.03690299 62.68514562 126.31582125 54.29960632 125.03105164 C46.63662099 123.27370555 42.09055959 118.8646097 36.67070007 113.39433289 C35.34618835 112.0891571 35.34618835 112.0891571 33.99491882 110.75761414 C31.53560695 108.32016282 29.10063058 105.86101864 26.67070007 103.39433289 C25.90040466 102.63354431 25.13010925 101.87275574 24.33647156 101.08891296 C21.70714208 98.43116872 19.19689454 95.6985542 16.69413757 92.92167664 C10.44425216 86.0483333 3.8881552 79.49944491 -2.70429993 72.95683289 C-3.86469539 71.80147414 -5.02485254 70.64587598 -6.18476868 69.49003601 C-8.30489167 67.37796661 -10.42635679 65.2672672 -12.54951477 63.1582489 C-14.38865988 61.32960304 -16.22265888 59.49576554 -18.05122375 57.65653992 C-20.8169487 54.91008109 -23.76330979 52.43917864 -26.75508118 49.94511414 C-27.27457336 49.43335632 -27.79406555 48.92159851 -28.32929993 48.39433289 C-28.32929993 47.73433289 -28.32929993 47.07433289 -28.32929993 46.39433289 C-28.98929993 46.39433289 -29.64929993 46.39433289 -30.32929993 46.39433289 C-36.65135948 40.5713833 -40.78745838 35.57890093 -41.70039368 26.84355164 C-41.86785164 17.35755071 -41.00782013 11.38605946 -34.46211243 4.40214539 C-24.16492366 -5.25397326 -12.41745727 -6.37153804 0 0 Z " fill="#030102" transform="translate(536.3292999267578,223.6056671142578)"/>
<path d="M0 0 C9.89521896 5.30471421 17.55834082 14.65385436 25.375 22.5625 C27.66628717 24.88058585 29.96101306 27.19518961 32.2578125 29.5078125 C33.02679367 30.28924118 33.02679367 30.28924118 33.81130981 31.0864563 C36.31660529 33.60849492 38.84876375 35.95923565 41.62451172 38.18310547 C42.49092285 38.92705566 43.35733398 39.67100586 44.25 40.4375 C44.25 41.0975 44.25 41.7575 44.25 42.4375 C44.91 42.4375 45.57 42.4375 46.25 42.4375 C46.25 43.0975 46.25 43.7575 46.25 44.4375 C47.735 44.9325 47.735 44.9325 49.25 45.4375 C54.02272727 49.75568182 54.02272727 49.75568182 55.25 53.4375 C55.91 53.4375 56.57 53.4375 57.25 53.4375 C59.76838678 55.93727801 61.97384066 58.71733648 64.25 61.4375 C64.9925 62.2625 65.735 63.0875 66.5 63.9375 C71.18837633 70.63518047 72.10028892 77.37156482 71.25 85.4375 C69.94556109 91.55749253 66.72515209 97.08329797 62.25 101.4375 C54.17958664 106.58828515 46.49147486 108.58955282 37.015625 107.08203125 C25.26282059 103.9771237 16.41846566 91.76829198 8.0390625 83.39453125 C6.89715399 82.25584569 5.75517465 81.11723115 4.61312866 79.97868347 C2.23983479 77.6113261 -0.13143613 75.24196387 -2.50146484 72.87133789 C-5.52906122 69.84363926 -8.56352152 66.82292014 -11.59972191 63.80385303 C-13.95208684 61.46262527 -16.29987389 59.11684766 -18.6464119 56.76978111 C-19.76348977 55.65387732 -20.88217573 54.53958076 -22.0025444 53.42698097 C-23.56689824 51.87247834 -25.12472633 50.31170253 -26.68115234 48.74926758 C-27.56588226 47.86596268 -28.45061218 46.98265778 -29.3621521 46.07258606 C-35.6426071 39.14185173 -38.26904377 32.37447963 -38.0703125 23.0625 C-37.28047899 16.58971809 -34.50478602 9.94203412 -29.75 5.4375 C-20.46368345 -0.8043734 -11.05006674 -4.50473104 0 0 Z " fill="#030203" transform="translate(388.75,393.5625)"/>
<path d="M0 0 C0 3.94042779 -1.46184088 5.08858219 -4 8 C-5.65013308 9.65013308 -7.31055651 11.12023803 -9.09765625 12.61328125 C-13.39824206 16.28500255 -17.42572165 20.20508508 -21.4375 24.1875 C-22.16904297 24.89841797 -22.90058594 25.60933594 -23.65429688 26.34179688 C-24.34458984 27.02693359 -25.03488281 27.71207031 -25.74609375 28.41796875 C-26.37185303 29.03438232 -26.9976123 29.6507959 -27.64233398 30.28588867 C-29.31044441 32.02750779 -29.31044441 32.02750779 -29 35 C-29.5676709 35.08016357 -30.1353418 35.16032715 -30.72021484 35.24291992 C-33.74554462 36.24758341 -35.23111395 37.85905215 -37.4765625 40.11328125 C-38.311875 40.94923828 -39.1471875 41.78519531 -40.0078125 42.64648438 C-40.87148437 43.52626953 -41.73515625 44.40605469 -42.625 45.3125 C-43.49640625 46.18068359 -44.3678125 47.04886719 -45.265625 47.94335938 C-50.30235924 52.98902476 -50.30235924 52.98902476 -54 59 C-55.33333333 59.66666667 -56.66666667 60.33333333 -58 61 C-58.33 61.66 -58.66 62.32 -59 63 C-60.27514492 65.55028983 -61.40341297 65.93081711 -64 67 C-65.33625722 67.66078654 -66.67002225 68.32666398 -68 69 C-64.0682924 64.29254923 -59.97742714 59.8358829 -55.62744141 55.51391602 C-55.02184387 54.90817245 -54.41624634 54.30242889 -53.79229736 53.67832947 C-51.81441659 51.70113854 -49.83303086 49.72750124 -47.8515625 47.75390625 C-46.46986361 46.37407484 -45.08838712 44.9940207 -43.7071228 43.61375427 C-40.08935087 39.9997815 -36.46858481 36.38882327 -32.84716797 32.77850342 C-29.14498223 29.08658797 -25.44566229 25.39180337 -21.74609375 21.69726562 C-14.50018369 14.46204697 -7.25110445 7.23001259 0 0 Z " fill="#1C0D17" transform="translate(222,387)"/>
<path d="M0 0 C0.58247498 0.23081772 1.16494995 0.46163544 1.76507568 0.69944763 C0.80601318 1.10163513 0.80601318 1.10163513 -0.17242432 1.51194763 C-2.56624118 2.58612515 -2.56624118 2.58612515 -3.23492432 5.69944763 C-3.85367432 5.98819763 -4.47242432 6.27694763 -5.10992432 6.57444763 C-7.45819048 7.58317091 -7.45819048 7.58317091 -8.73492432 10.19944763 C-10.23492432 12.69944763 -10.23492432 12.69944763 -12.02008057 13.55491638 C-14.96391943 15.07615939 -16.86543835 17.14097746 -19.17242432 19.51194763 C-20.42345947 20.7900531 -20.42345947 20.7900531 -21.69976807 22.09397888 C-22.53636963 22.95378357 -23.37297119 23.81358826 -24.23492432 24.69944763 C-25.08570557 25.54249451 -25.93648682 26.38554138 -26.81304932 27.25413513 C-28.98213121 29.44420814 -31.03239865 31.68083951 -33.04742432 34.01194763 C-33.65199463 34.70933044 -34.25656494 35.40671326 -34.87945557 36.12522888 C-35.5504126 36.90446716 -35.5504126 36.90446716 -36.23492432 37.69944763 C-36.89492432 37.03944763 -37.55492432 36.37944763 -38.23492432 35.69944763 C-33.19874034 30.53679122 -28.14329196 25.39360037 -23.0737915 20.26365662 C-21.35050795 18.51518361 -19.63173256 16.7622557 -17.9175415 15.00486755 C-15.45685525 12.48373092 -12.98055315 9.97890944 -10.50054932 7.47679138 C-9.35033295 6.28786537 -9.35033295 6.28786537 -8.17687988 5.07492065 C-7.45643494 4.35409805 -6.73598999 3.63327545 -5.99371338 2.89060974 C-5.36305969 2.248853 -4.73240601 1.60709625 -4.0826416 0.94589233 C-2.23492432 -0.30055237 -2.23492432 -0.30055237 0 0 Z " fill="#170B15" transform="translate(269.23492431640625,231.30055236816406)"/>
<path d="M0 0 C0.33 0.66 0.66 1.32 1 2 C-1.89059777 5.97457193 -5.19957916 8.98861298 -8.8984375 12.16796875 C-10.95906316 13.96431343 -12.96637554 15.79343596 -14.9375 17.6875 C-15.50339844 18.22761719 -16.06929687 18.76773437 -16.65234375 19.32421875 C-18.16367672 21.20352845 -18.59457446 22.6444263 -19 25 C-19.99 24.67 -20.98 24.34 -22 24 C-24.16715557 24.87483915 -24.16715557 24.87483915 -26 26 C-25.0919838 24.86800647 -24.17316174 23.74467637 -23.25 22.625 C-22.48429688 21.68527344 -22.48429688 21.68527344 -21.703125 20.7265625 C-19.91800519 18.91687682 -18.32050356 17.99882545 -16 17 C-16 16.34 -16 15.68 -16 15 C-15.34 15 -14.68 15 -14 15 C-13.67 14.01 -13.34 13.02 -13 12 C-12.34 12 -11.68 12 -11 12 C-10.67 11.01 -10.34 10.02 -10 9 C-8.22265625 7.24609375 -8.22265625 7.24609375 -6.0625 5.4375 C-3.96656037 3.66869432 -1.94005112 1.94005112 0 0 Z " fill="#10050F" transform="translate(212,286)"/>
<path d="M0 0 C0.33 0 0.66 0 1 0 C2.87084073 13.52880696 3.00245846 26.38553043 2 40 C0.02 40.495 0.02 40.495 -2 41 C-1.67402832 40.51499023 -1.34805664 40.02998047 -1.01220703 39.53027344 C0.44041734 35.89906289 0.24569062 32.36470959 0.1953125 28.515625 C0.19106766 27.29223419 0.19106766 27.29223419 0.18673706 26.04412842 C0.17556558 23.44593472 0.15046675 20.84808905 0.125 18.25 C0.11496627 16.48568207 0.10584111 14.72135872 0.09765625 12.95703125 C0.07563619 8.63788727 0.04112733 4.31900259 0 0 Z " fill="#351D30" transform="translate(603,219)"/>
<path d="M0 0 C0 3.8212526 -1.47133792 4.86228993 -4.0703125 7.48046875 C-4.62460938 8.02316406 -5.17890625 8.56585938 -5.75 9.125 C-6.28882812 9.67542969 -6.82765625 10.22585938 -7.3828125 10.79296875 C-10.17488751 13.56461394 -12.13071293 15.28141812 -16 16 C-12.63699159 11.69114547 -9.03918174 8.14405459 -4.8671875 4.61328125 C-3.16296232 3.14080217 -1.56975784 1.61363306 0 0 Z " fill="#25141F" transform="translate(132,365)"/>
<path d="M0 0 C1.32 0.33 2.64 0.66 4 1 C4 1.99 4 2.98 4 4 C0.84169815 7.06806466 -1.61999924 8.49942848 -6 9 C-4.7934375 7.88625 -4.7934375 7.88625 -3.5625 6.75 C-1.23011409 4.24695171 -0.36465606 3.2819045 0 0 Z " fill="#22141E" transform="translate(611,338)"/>
<path d="M0 0 C3.37462715 0.54723683 5.08235 1.0549 8 3 C8 3.66 8 4.32 8 5 C8.66 5.33 9.32 5.66 10 6 C9.01 7.485 9.01 7.485 8 9 C6.66368764 7.6905332 5.33102075 6.37734515 4 5.0625 C3.2575 4.33160156 2.515 3.60070312 1.75 2.84765625 C0 1 0 1 0 0 Z " fill="#140B13" transform="translate(400,479)"/>
<path d="M0 0 C0 0.33 0 0.66 0 1 C-1.7634375 1.309375 -1.7634375 1.309375 -3.5625 1.625 C-8.46428379 2.81331122 -11.48382548 5.50580157 -15 9 C-15 8.01 -15 7.02 -15 6 C-14.34 6 -13.68 6 -13 6 C-12.67 5.01 -12.34 4.02 -12 3 C-11.34 3 -10.68 3 -10 3 C-9.67 2.01 -9.34 1.02 -9 0 C-5.52176885 -1.15941038 -3.54104422 -0.70820884 0 0 Z " fill="#1F0B15" transform="translate(223,365)"/>
<path d="M0 0 C0.66 0.33 1.32 0.66 2 1 C1.01 2.485 1.01 2.485 0 4 C-0.68177416 5.32567199 -1.35191436 6.65753688 -2 8 C-2.99 7.67 -3.98 7.34 -5 7 C-5.33 6.01 -5.66 5.02 -6 4 C-4.02 2.68 -2.04 1.36 0 0 Z " fill="#1B1017" transform="translate(375,133)"/>
<path d="M0 0 C0.66 0.33 1.32 0.66 2 1 C0.92598892 3.91517292 0.22189824 5.77810176 -2 8 C-4 8 -6 8 -8 8 C-5.36 5.36 -2.72 2.72 0 0 Z " fill="#1A0C19" transform="translate(194,303)"/>
<path d="M0 0 C0.66 0.33 1.32 0.66 2 1 C0.06745228 3.0245738 -1.63158688 4.42105792 -4 6 C-4.99 7.485 -4.99 7.485 -6 9 C-7.32 8.34 -8.64 7.68 -10 7 C-6.7 4.69 -3.4 2.38 0 0 Z " fill="#180C14" transform="translate(94,126)"/>
<path d="M0 0 C0.99 0.33 1.98 0.66 3 1 C0.69 3.64 -1.62 6.28 -4 9 C-4.66 8.01 -5.32 7.02 -6 6 C-4.68 5.67 -3.36 5.34 -2 5 C-2 4.01 -2 3.02 -2 2 C-1.34 2 -0.68 2 0 2 C0 1.34 0 0.68 0 0 Z " fill="#1D0915" transform="translate(231,460)"/>
<path d="M0 0 C0 1.66666667 0 3.33333333 0 5 C-1.62626404 6.38232443 -3.2925002 7.71937515 -5 9 C-5.66 8.34 -6.32 7.68 -7 7 C-4.69 4.69 -2.38 2.38 0 0 Z " fill="#25131D" transform="translate(217,504)"/>
<path d="M0 0 C0.66 0.33 1.32 0.66 2 1 C0.02 3.31 -1.96 5.62 -4 8 C-5.32 7.34 -6.64 6.68 -8 6 C-5.36 4.02 -2.72 2.04 0 0 Z " fill="#291620" transform="translate(364,140)"/>
<path d="M0 0 C3.34373475 0.55728913 6.03312999 1.35173889 9 3 C8.67 4.65 8.34 6.3 8 8 C7.4225 7.236875 6.845 6.47375 6.25 5.6875 C4.28296907 3.33799083 2.51523256 1.70676495 0 0 Z " fill="#25111C" transform="translate(278,422)"/>
<path d="M0 0 C0.66 0.33 1.32 0.66 2 1 C-3.14285714 6.57142857 -3.14285714 6.57142857 -7 7 C-5.66667905 3.00003714 -3.5042173 2.16217663 0 0 Z " fill="#351F2E" transform="translate(444,262)"/>
<path d="M0 0 C0.144375 0.598125 0.28875 1.19625 0.4375 1.8125 C0.8872439 3.56150404 1.42892341 5.28677023 2 7 C-1.16115776 5.63016497 -1.9927092 5.0109362 -4 2 C-2.68 1.34 -1.36 0.68 0 0 Z " fill="#26141F" transform="translate(283,211)"/>
</svg>
