<svg version="1.1" id="Layer_1" xmlns="http://www.w3.org/2000/svg" xmlns:xlink="http://www.w3.org/1999/xlink" x="0px" y="0px"
	 width="100%" viewBox="0 0 832 528" enable-background="new 0 0 832 528" xml:space="preserve">
<path fill="#000000" opacity="1.000000" stroke="none" 
	d="
M440.314301,55.140083 
	C464.422699,47.289867 488.817810,43.713192 513.714600,42.503178 
	C546.077148,40.930313 577.880249,43.958557 609.013367,52.875660 
	C628.838379,58.553913 647.774048,66.302383 663.110779,80.776184 
	C672.333130,89.479599 676.975220,99.869576 677.628845,112.972580 
	C678.505371,130.541626 674.161499,145.173126 660.315857,156.497131 
	C654.621948,161.154068 648.579712,165.275620 642.068726,168.683517 
	C620.715515,179.860016 597.747681,185.712921 574.085693,189.340881 
	C554.251404,192.381958 534.283142,193.055801 514.307678,192.217270 
	C480.967377,190.817703 448.497192,185.123108 418.099945,170.505920 
	C408.885193,166.074799 400.521057,160.385498 392.989716,153.433319 
	C379.650116,141.119614 377.524841,125.469933 379.147064,108.527931 
	C380.850220,90.740570 392.403259,80.061531 406.047211,71.000710 
	C416.508514,64.053429 427.984711,59.098614 440.314301,55.140083 
z"/>
<path fill="#000000" opacity="1.000000" stroke="none" 
	d="
M265.065918,303.226990 
	C245.560959,299.896973 226.831390,295.400818 209.112991,287.389404 
	C195.651443,281.302704 183.044006,273.948761 173.567673,262.244354 
	C167.495193,254.744186 164.133499,246.247131 164.646255,236.427353 
	C165.034851,228.985336 163.761002,221.463577 166.236877,214.124771 
	C169.805267,203.547623 176.984848,195.839584 185.635544,189.351196 
	C203.587891,175.886169 224.358047,168.892410 245.848862,163.721909 
	C274.572113,156.811325 303.797821,155.837677 333.145905,156.851791 
	C339.445984,157.069473 345.711792,158.161804 352.007355,158.682236 
	C354.584717,158.895279 355.480164,160.177475 355.461487,162.546646 
	C355.424713,167.206299 355.424500,171.866302 355.423645,176.526169 
	C355.416351,216.836197 355.331207,257.146576 355.511902,297.455780 
	C355.534027,302.387665 354.329773,304.451599 349.114990,304.923828 
	C328.352539,306.804047 307.608643,307.692078 286.819489,305.602997 
	C279.707428,304.888306 272.607513,304.052704 265.065918,303.226990 
z"/>
<path fill="#000000" opacity="1.000000" stroke="none" 
	d="
M383.858795,216.976288 
	C376.812134,202.068985 377.661377,187.306107 381.770660,171.780823 
	C383.118378,172.606476 383.690765,172.757355 383.912567,173.121674 
	C395.932739,192.864853 415.267273,202.370819 435.862427,209.889206 
	C459.490204,218.514664 484.037567,222.408035 509.108826,223.951355 
	C545.377869,226.183975 580.909607,222.647507 615.558411,211.616730 
	C631.685486,206.482498 646.806335,199.230438 659.911072,188.190231 
	C665.327271,183.627396 669.215515,177.883606 673.026733,172.084000 
	C675.780945,172.918884 676.007019,175.172455 676.293762,176.940414 
	C677.980469,187.339050 678.588440,197.916519 676.177246,208.153198 
	C672.825562,222.383011 662.367737,231.420578 650.648132,238.894989 
	C628.177856,253.225845 603.043213,260.131744 577.034790,264.231873 
	C550.082947,268.480682 522.980713,269.184814 495.855530,266.277405 
	C464.324005,262.897675 433.744934,256.078003 406.320648,239.138794 
	C397.303253,233.569031 389.551544,226.533264 383.858795,216.976288 
z"/>
<path fill="#000000" opacity="1.000000" stroke="none" 
	d="
M434.143433,328.029114 
	C421.614563,323.189117 410.098785,317.382904 399.487305,309.644226 
	C382.094757,296.960297 376.596954,279.737946 379.165344,259.189514 
	C379.653168,255.286774 379.690216,251.177933 382.432251,247.591980 
	C382.963196,247.896652 383.710052,248.065079 383.980804,248.518082 
	C394.982971,266.926636 412.758301,276.269562 431.733337,283.722198 
	C455.163940,292.924774 479.661011,297.342651 504.733429,298.990479 
	C541.600769,301.413544 577.947937,298.835083 613.339661,287.636444 
	C632.383789,281.610474 650.403625,273.510345 664.662537,258.821594 
	C668.022339,255.360413 670.483337,251.216995 673.294006,247.093536 
	C676.088440,249.049438 676.587952,251.853470 676.828857,254.298492 
	C677.727661,263.418304 678.274658,272.676422 676.682556,281.688446 
	C674.640015,293.250549 667.239197,301.723785 658.253845,308.760651 
	C640.700684,322.507416 620.269958,330.008636 598.923035,335.195953 
	C571.749207,341.799225 544.088318,344.316833 516.183716,343.110229 
	C488.311035,341.905029 460.881989,337.793427 434.143433,328.029114 
z"/>
<path fill="#000000" opacity="1.000000" stroke="none" 
	d="
M555.273438,421.424194 
	C534.007690,423.018890 513.260803,422.807709 492.478516,420.524841 
	C468.983765,417.944031 446.228607,412.745270 424.466736,403.457642 
	C415.081696,399.452240 406.409088,394.249939 398.252075,388.072784 
	C381.575897,375.444214 376.680054,358.425842 379.243927,338.514679 
	C379.746643,334.610443 379.681122,330.504974 382.164276,327.181366 
	C383.026062,326.873657 383.624664,327.199036 383.956818,327.791656 
	C391.727905,341.654877 404.173523,350.240936 417.907593,357.022980 
	C442.391174,369.113281 468.614380,374.983246 495.649597,377.705933 
	C513.590515,379.512695 531.578491,379.766602 549.521423,378.551086 
	C582.149841,376.340698 613.895691,370.261017 643.035217,354.418152 
	C654.744507,348.051910 665.128540,340.108002 671.997070,328.312134 
	C672.398621,327.622406 672.854248,326.861328 674.069580,326.959015 
	C675.804321,328.334381 676.247070,330.602539 676.486572,332.609131 
	C677.750549,343.196289 678.824646,353.956512 675.814636,364.306549 
	C671.756897,378.259186 661.167969,387.099854 649.379272,394.416473 
	C626.455994,408.643707 600.914612,415.281891 574.567078,419.309174 
	C568.328064,420.262817 562.013123,420.719543 555.273438,421.424194 
z"/>
<path fill="#000000" opacity="1.000000" stroke="none" 
	d="
M663.643188,414.637817 
	C667.588501,410.780029 670.073853,406.217163 673.338745,401.949097 
	C676.238770,403.853882 676.716492,406.864288 676.938538,409.422455 
	C677.701660,418.213043 678.201599,427.136475 676.805847,435.831726 
	C675.191528,445.889038 669.296082,453.868347 661.742920,460.522125 
	C646.522522,473.930084 628.348145,481.705353 609.139343,487.121063 
	C570.025635,498.148834 530.267273,500.522095 489.952454,495.529510 
	C463.820740,492.293396 438.528137,486.360229 415.009521,474.173706 
	C403.818390,468.374939 393.727478,461.130432 386.216766,450.728729 
	C378.109528,439.500793 378.173645,426.743134 379.266907,413.835266 
	C379.596313,409.946136 379.690430,405.844513 382.478210,402.490234 
	C382.971954,402.747040 383.582153,402.855835 383.800354,403.207733 
	C396.458313,423.618896 416.695312,433.098633 438.130768,440.746552 
	C460.709351,448.802307 484.125275,452.400452 507.985992,453.945312 
	C542.342285,456.169678 576.133240,453.202209 609.221191,443.638397 
	C629.228027,437.855560 648.035950,429.552582 663.643188,414.637817 
z"/>
<path fill="#000000" opacity="1.000000" stroke="none" 
	d="
M164.721954,372.299683 
	C165.345474,368.300262 165.383301,364.556702 168.265701,361.692505 
	C171.094788,363.506226 171.823715,366.640594 173.678314,368.942108 
	C185.631256,383.775543 201.855545,392.087769 219.122559,398.658569 
	C239.934555,406.578430 261.608002,410.816132 283.755127,412.748688 
	C306.047028,414.693878 328.312653,414.595398 350.552917,411.959869 
	C352.685425,411.707153 355.320709,411.346039 355.304443,414.648743 
	C355.239746,427.795349 355.381378,440.897400 361.078796,453.589417 
	C351.257050,455.595795 342.165253,456.449677 333.085022,456.920776 
	C295.203674,458.886200 257.884918,455.769592 221.829483,443.122284 
	C204.401260,437.008942 187.980026,428.972565 175.293198,414.955994 
	C167.949158,406.842224 164.020752,397.405731 164.615860,386.257355 
	C164.855377,381.770172 164.686264,377.261169 164.721954,372.299683 
z"/>
<path fill="#000000" opacity="1.000000" stroke="none" 
	d="
M297.297791,338.630463 
	C316.724182,338.985779 335.665131,338.882141 354.186218,336.368835 
	C356.069672,339.143250 355.342133,341.541260 355.360718,343.793732 
	C355.445831,354.117950 355.225281,364.447998 355.501953,374.765564 
	C355.602264,378.506531 354.129517,379.845917 350.762970,380.112732 
	C332.016541,381.598602 313.317261,382.909027 294.442627,381.581207 
	C273.456268,380.104767 252.771271,377.261719 232.605728,371.287170 
	C213.000916,365.478729 194.243912,357.801544 179.032913,343.512360 
	C169.526520,334.582001 163.756439,323.898346 164.628540,310.350128 
	C165.085480,303.251221 163.619583,295.995026 166.429398,289.097565 
	C166.799332,288.189514 167.011398,287.155365 168.066315,286.714600 
	C168.889847,286.450714 169.339417,287.020325 169.657730,287.566040 
	C177.537933,301.074677 189.787323,309.530579 203.300552,316.418457 
	C223.993591,326.966003 246.208817,332.493195 269.063080,335.652130 
	C278.277740,336.925812 287.568695,337.647766 297.297791,338.630463 
z"/>
</svg>