<svg width="100" height="100" version="1.1" viewBox="0 0 100 100" xmlns="http://www.w3.org/2000/svg"><path d="m30.461 0c-0.7488-7.4015e-17 -1.467 0.2951-1.998 0.82617l-27.637 27.635c-0.5311 0.5267-0.82617 1.2493-0.82617 1.998v39.082c-7.4015e-17 0.74879 0.29508 1.467 0.82617 1.998l27.637 27.633c0.5268 0.53106 1.2493 0.82812 1.998 0.82812h39.074c0.7531 0 1.4709-0.29661 2.002-0.83203l27.637-27.633c0.53109-0.5267 0.82617-1.2493 0.82617-1.998v-39.078c0-0.74879-0.29507-1.467-0.82617-1.998l-27.637-27.635c-0.5268-0.53108-1.2493-0.82617-1.998-0.82617h-39.078zm1.1699 5.6602h36.732l25.977 25.975v36.73l-25.977 25.975h-36.732l-25.975-25.971v-36.734l25.975-25.975zm18.369 9.3398a10.15 10.15 0 0 0-10.15 10.15 10.15 10.15 0 0 0 10.15 10.15 10.15 10.15 0 0 0 10.15-10.15 10.15 10.15 0 0 0-10.15-10.15zm0 21.877a12.95 4.9 0 0 0-12.641 3.8984l-0.025391-0.015625-7.7852 13.859-11.018 3.2754a4.9 4.9 0 0 0-0.027344 0.009766 4.9 4.9 0 0 0-3.5039 4.6953 4.9 4.9 0 0 0 4.9004 4.9004 4.9 4.9 0 0 0 1.3945-0.20312l12.936-3.8457 0.015625-0.003906v-0.001954a4.9 4.9 0 0 0 2.8594-2.2891l0.009765 0.005859 1.7051-3.0156 0.8457 7.7676 10.332 2.2402 10.336-2.2402 0.8457-7.7676 1.7051 3.0156 0.009765-0.005859a4.9 4.9 0 0 0 2.8613 2.291 4.9 4.9 0 0 0 0.025391 0.007812l12.924 3.8418a4.9 4.9 0 0 0 1.3945 0.20312 4.9 4.9 0 0 0 4.9004-4.9004 4.9 4.9 0 0 0-3.5039-4.6953v-0.001953l-11.045-3.2832-7.7715-13.832a12.95 4.9 0 0 0-0.029297-0.054687l-0.029297-0.052734-0.003906 0.001953a12.95 4.9 0 0 0-12.617-3.8047zm-20.824 29.049a5.95 5.95 0 0 0-5.9512 5.9492 5.95 5.95 0 0 0 4.6914 5.7988l-0.001954 0.015625 1.8535 0.40234c0.41112-3.3495 2.9014-6.1482 6.2598-6.8848a2.1002 2.1002 0 0 1 0.015625-0.023437l9.0039-1.9531-14.609-3.1699v0.001953a5.95 5.95 0 0 0-1.2617-0.13672zm41.648 0a5.95 5.95 0 0 0-1.2578 0.15039l-0.003906-0.015625-33.074 7.1738 0.001953 0.015625a5.95 5.95 0 0 0-4.6895 5.8008 5.95 5.95 0 0 0 5.9492 5.9492 5.95 5.95 0 0 0 1.2598-0.15039l0.001953 0.015625 33.07-7.1738-0.003906-0.015625a5.95 5.95 0 0 0 4.6973-5.8008 5.95 5.95 0 0 0-5.9512-5.9492zm-2.9023 14.816-12.969 2.8125 6.0352 1.3105 0.001953-0.015625a5.95 5.95 0 0 0 1.2598 0.15039 5.95 5.95 0 0 0 5.6719-4.2578z"/></svg>