<?xml version="1.0" standalone="no"?>
<!DOCTYPE svg PUBLIC "-//W3C//DTD SVG 20010904//EN"
 "http://www.w3.org/TR/2001/REC-SVG-20010904/DTD/svg10.dtd">
<svg version="1.0" xmlns="http://www.w3.org/2000/svg"
 width="640.000000pt" height="1280.000000pt" viewBox="0 0 640.000000 1280.000000"
 preserveAspectRatio="xMidYMid meet">
<metadata>
Created by potrace 1.15, written by Peter Selinger 2001-2017
</metadata>
<g transform="translate(0.000000,1280.000000) scale(0.100000,-0.100000)"
fill="#000000" stroke="none">
<path d="M2976 12637 c-109 -208 -233 -464 -281 -582 -128 -313 -214 -642
-257 -995 -17 -137 -17 -575 0 -695 58 -403 162 -701 337 -966 59 -88 180
-227 190 -218 2 3 -5 38 -15 79 -48 188 -87 531 -77 685 3 50 16 149 28 220
24 144 29 305 13 430 -14 103 -3 208 32 315 24 75 241 521 264 544 21 21 198
-143 262 -244 68 -108 81 -157 83 -330 3 -172 4 -181 48 -400 30 -148 31 -166
32 -405 0 -145 -6 -300 -13 -370 -12 -102 -61 -424 -77 -505 -8 -42 127 110
214 240 452 675 478 1616 66 2425 -144 283 -282 473 -492 675 -54 52 -137 133
-184 179 l-87 83 -86 -165z"/>
<path d="M4295 8770 c-116 -21 -389 -88 -592 -145 -589 -166 -950 -226 -1228
-204 -206 17 -352 68 -498 174 -94 69 -132 85 -199 85 -123 -1 -182 -57 -285
-270 -173 -357 -285 -665 -340 -930 -29 -142 -35 -339 -14 -425 7 -27 32 -145
56 -260 41 -204 78 -321 116 -377 11 -14 19 -33 19 -42 0 -19 21 -55 67 -112
61 -77 42 -106 -84 -124 -84 -11 -103 -29 -103 -91 0 -67 32 -146 100 -248 64
-95 196 -229 248 -250 l32 -13 0 -2330 0 -2330 -37 -62 c-165 -274 -361 -418
-758 -556 -270 -93 -341 -134 -386 -223 l-19 -37 2805 0 c2719 0 2805 1 2796
18 -14 25 -81 86 -132 118 -40 25 -119 55 -181 68 -45 10 -226 153 -348 276
-165 165 -299 349 -399 548 l-41 82 0 2809 0 2809 47 -14 c89 -27 162 -13 196
39 26 40 36 96 52 288 8 101 22 210 30 242 8 31 22 83 30 114 20 75 19 243 -1
341 -32 159 -116 358 -220 527 -37 59 -61 117 -94 225 -44 141 -47 147 -100
200 -75 76 -125 92 -295 96 -97 3 -158 -2 -240 -16z"/>
</g>
</svg>
