<svg width="100" height="100" viewBox="0 0 100 100" xmlns="http://www.w3.org/2000/svg"><path d="m50 0a5 5 0 0 0-4.2539 2.373s-0.001307 0.0020593-0.003906 0.0058593c-0.21945 0.31967-9.5958 13.982-13.941 21.021-4.3972 7.1231-12.432 21.684-12.432 21.684h0.001953a36 36 0 0 0-5.3711 18.916 36 36 0 0 0 36 36 36 36 0 0 0 36-36 36 36 0 0 0-5.3711-18.916h0.001953s-8.0344-14.56-12.432-21.684c-4.3457-7.0395-13.722-20.702-13.941-21.021a5 5 0 0 0-0.003906-0.0058593 5 5 0 0 0-4.2539-2.373zm-24.15 51.279a5 5 0 0 1 1.2949 0.16992 5 5 0 0 1 3.5352 6.125c-1.9492 7.2744 0.34089 15 5.9375 20.039a5 5 0 0 1 0.36914 7.0605 5 5 0 0 1-7.0605 0.37109c-8.376-7.5417-11.821-19.172-8.9043-30.059a5 5 0 0 1 4.8281-3.707zm21.4 32.471a5.25 5.25 0 0 1 5.25 5.25 5.25 5.25 0 0 1-5.25 5.25 5.25 5.25 0 0 1-5.25-5.25 5.25 5.25 0 0 1 5.25-5.25z"/></svg>