<svg width="100" height="100" version="1.1" viewBox="0 0 100 100" xmlns="http://www.w3.org/2000/svg"><path d="m50 0a14.5 14.5 0 0 0-14.5 14.5 14.5 14.5 0 0 0 14.5 14.5 14.5 14.5 0 0 0 14.5-14.5 14.5 14.5 0 0 0-14.5-14.5zm0 31.254a18.5 7 0 0 0-18.059 5.5684l-0.037109-0.023438-11.119 19.801-15.74 4.6797a7 7 0 0 0-0.039062 0.011719 7 7 0 0 0-5.0059 6.709 7 7 0 0 0 7 7 7 7 0 0 0 1.9941-0.29102l18.479-5.4922 0.021485-0.005859v-0.001954a7 7 0 0 0 4.084-3.2715l0.015625 0.007812 2.4355-4.3066 1.207 11.096 14.762 3.2012 14.766-3.2012 1.207-11.096 2.4355 4.3066 0.015625-0.007812a7 7 0 0 0 4.0859 3.2715 7 7 0 0 0 0.03711 0.011719l18.461 5.4883a7 7 0 0 0 1.9941 0.29102 7 7 0 0 0 7-7 7 7 0 0 0-5.0059-6.709v-0.001954l-15.779-4.6895-11.1-19.762a18.5 7 0 0 0-0.042968-0.078125l-0.042969-0.074219-0.003906 0.001953a18.5 7 0 0 0-18.025-5.4336zm-29.75 41.496a8.5 8.5 0 0 0-8.5 8.5 8.5 8.5 0 0 0 6.7012 8.2852l-0.003906 0.021485 2.6484 0.57422c0.58731-4.785 4.1457-8.7837 8.9434-9.8359a3.0003 3.0003 0 0 1 0.021485-0.033203l12.863-2.791-20.871-4.5273v0.001953a8.5 8.5 0 0 0-1.8027-0.19531zm59.5 0a8.5 8.5 0 0 0-1.7988 0.21484l-0.003906-0.021485-47.25 10.25 0.003906 0.021485a8.5 8.5 0 0 0-6.7012 8.2852 8.5 8.5 0 0 0 8.5 8.5 8.5 8.5 0 0 0 1.7988-0.21484l0.003906 0.021485 47.242-10.248-0.003906-0.021485a8.5 8.5 0 0 0 6.709-8.2871 8.5 8.5 0 0 0-8.5-8.5zm-4.1465 21.168-18.527 4.0176 8.6211 1.8711 0.003906-0.021485a8.5 8.5 0 0 0 1.7988 0.21484 8.5 8.5 0 0 0 8.1035-6.082z"/></svg>